<svg xmlns="http://www.w3.org/2000/svg" version="1.1" xmlns:xlink="http://www.w3.org/1999/xlink" width="1000" height="1000"><style>
    #light-icon {
      display: inline;
    }
    #dark-icon {
      display: none;
    }

    @media (prefers-color-scheme: dark) {
      #light-icon {
        display: none;
      }
      #dark-icon {
        display: inline;
      }
    }
  </style><g id="light-icon"><svg xmlns="http://www.w3.org/2000/svg" version="1.1" xmlns:xlink="http://www.w3.org/1999/xlink" width="1000" height="1000"><g><g transform="matrix(4.545454545454546,0,0,4.545454545454546,-5.684341886080802e-14,-5.684341886080802e-14)"><svg xmlns="http://www.w3.org/2000/svg" version="1.1" xmlns:xlink="http://www.w3.org/1999/xlink" width="220" height="220"><svg width="220" height="220" viewBox="0 0 220 220" fill="none" xmlns="http://www.w3.org/2000/svg">
<path d="M186.5 42.5H191.5V37.5H186.5V42.5ZM142 172.5C139.239 172.5 137 174.739 137 177.5C137 180.261 139.239 182.5 142 182.5V177.5V172.5ZM157 42.5L157 47.5H186.5V42.5V37.5H157V42.5ZM186.5 42.5H181.5L181.5 153H186.5H191.5L191.5 42.5H186.5ZM186.5 153H181.5C181.5 156.691 179.453 161.678 175.714 165.851C172 169.995 167.378 172.5 163 172.5V177.5V182.5C171.122 182.5 178.25 178.005 183.161 172.524C188.047 167.072 191.5 159.809 191.5 153H186.5ZM163 177.5V172.5H142V177.5V182.5H163V177.5Z" fill="black"></path>
<path d="M33.5 177.5H28.5V182.5H33.5V177.5ZM78 47.5C80.7614 47.5 83 45.2614 83 42.5C83 39.7386 80.7614 37.5 78 37.5V42.5V47.5ZM63 177.5V172.5H33.5V177.5V182.5H63V177.5ZM33.5 177.5H38.5V67H33.5H28.5V177.5H33.5ZM33.5 67H38.5C38.5 63.3086 40.5473 58.3217 44.2862 54.1493C48 50.0049 52.6223 47.5 57 47.5V42.5V37.5C48.8777 37.5 41.75 41.9951 36.8388 47.4757C31.9527 52.9283 28.5 60.1914 28.5 67H33.5ZM57 42.5V47.5H78V42.5V37.5H57V42.5Z" fill="black"></path>
<path d="M95 78.3381L125 141.662" stroke="black" stroke-width="5" stroke-linecap="round"></path>
<path d="M77.6297 141.26C73.1939 136.666 69.7864 131.181 67.6338 125.169C65.4813 119.157 64.6328 112.756 65.145 106.391C65.6571 100.026 67.518 93.8428 70.6041 88.2523C73.6902 82.6619 77.9307 77.7923 83.0439 73.9671" stroke="#B21D26" stroke-width="7.5" stroke-miterlimit="2" stroke-linecap="round"></path>
<path d="M99.1135 66.3367C105.31 64.7919 111.763 64.5834 118.046 65.7252C124.329 66.867 130.297 69.3328 135.553 72.9589C140.809 76.585 145.234 81.2882 148.532 86.756C151.83 92.2239 153.927 98.3311 154.683 104.672" stroke="#EFCC6A" stroke-width="7.5" stroke-miterlimit="2" stroke-linecap="round"></path>
<path d="M153.257 122.404C151.497 128.542 148.45 134.235 144.32 139.106C140.19 143.976 135.07 147.911 129.302 150.65C123.534 153.389 117.248 154.869 110.864 154.992C104.479 155.114 98.1419 153.877 92.2726 151.361" stroke="#1A8CC9" stroke-width="7.5" stroke-miterlimit="2" stroke-linecap="round"></path>
</svg></svg></g></g></svg></g><g id="dark-icon"><svg xmlns="http://www.w3.org/2000/svg" version="1.1" xmlns:xlink="http://www.w3.org/1999/xlink" width="1000" height="1000"><g><g transform="matrix(4.545454545454546,0,0,4.545454545454546,-5.684341886080802e-14,-5.684341886080802e-14)"><svg xmlns="http://www.w3.org/2000/svg" version="1.1" xmlns:xlink="http://www.w3.org/1999/xlink" width="220" height="220"><svg width="220" height="220" viewBox="0 0 220 220" fill="none" xmlns="http://www.w3.org/2000/svg">
<path d="M186.5 42.5H191.5V37.5H186.5V42.5ZM142 172.5C139.239 172.5 137 174.739 137 177.5C137 180.261 139.239 182.5 142 182.5V177.5V172.5ZM157 42.5L157 47.5H186.5V42.5V37.5H157V42.5ZM186.5 42.5H181.5L181.5 153H186.5H191.5L191.5 42.5H186.5ZM186.5 153H181.5C181.5 156.691 179.453 161.678 175.714 165.851C172 169.995 167.378 172.5 163 172.5V177.5V182.5C171.122 182.5 178.25 178.005 183.161 172.524C188.047 167.072 191.5 159.809 191.5 153H186.5ZM163 177.5V172.5H142V177.5V182.5H163V177.5Z" fill="white"></path>
<path d="M33.5 177.5H28.5V182.5H33.5V177.5ZM78 47.5C80.7614 47.5 83 45.2614 83 42.5C83 39.7386 80.7614 37.5 78 37.5V42.5V47.5ZM63 177.5V172.5H33.5V177.5V182.5H63V177.5ZM33.5 177.5H38.5V67H33.5H28.5V177.5H33.5ZM33.5 67H38.5C38.5 63.3086 40.5473 58.3217 44.2862 54.1493C48 50.0049 52.6223 47.5 57 47.5V42.5V37.5C48.8777 37.5 41.75 41.9951 36.8388 47.4757C31.9527 52.9283 28.5 60.1914 28.5 67H33.5ZM57 42.5V47.5H78V42.5V37.5H57V42.5Z" fill="white"></path>
<path d="M95 78.3381L125 141.662" stroke="white" stroke-width="5" stroke-linecap="round"></path>
<path d="M77.6297 141.26C73.1939 136.666 69.7864 131.181 67.6338 125.169C65.4813 119.157 64.6328 112.756 65.145 106.391C65.6571 100.026 67.518 93.8428 70.6041 88.2523C73.6902 82.6619 77.9307 77.7923 83.0439 73.9671" stroke="#B21D26" stroke-width="7.5" stroke-miterlimit="2" stroke-linecap="round"></path>
<path d="M99.1135 66.3367C105.31 64.7919 111.763 64.5834 118.046 65.7252C124.329 66.867 130.297 69.3328 135.553 72.9589C140.809 76.585 145.234 81.2882 148.532 86.756C151.83 92.2239 153.927 98.3311 154.683 104.672" stroke="#EFCC6A" stroke-width="7.5" stroke-miterlimit="2" stroke-linecap="round"></path>
<path d="M153.257 122.404C151.497 128.542 148.45 134.235 144.32 139.106C140.19 143.976 135.07 147.911 129.302 150.65C123.534 153.389 117.248 154.869 110.864 154.992C104.479 155.114 98.1419 153.877 92.2726 151.361" stroke="#1A8CC9" stroke-width="7.5" stroke-miterlimit="2" stroke-linecap="round"></path>
</svg></svg></g></g></svg></g></svg>